<?xml version="1.0" encoding="UTF-8" standalone="no"?>
<svg
   xmlns:dc="http://purl.org/dc/elements/1.1/"
   xmlns:cc="http://creativecommons.org/ns#"
   xmlns:rdf="http://www.w3.org/1999/02/22-rdf-syntax-ns#"
   xmlns:svg="http://www.w3.org/2000/svg"
   xmlns="http://www.w3.org/2000/svg"
   xmlns:sodipodi="http://sodipodi.sourceforge.net/DTD/sodipodi-0.dtd"
   xmlns:inkscape="http://www.inkscape.org/namespaces/inkscape"
   width="24"
   height="24"
   viewBox="0 0 24 24"
   fill="none"
   version="1.1"
   id="svg843"
   sodipodi:docname="tree-view.svg"
   inkscape:version="1.0.2 (e86c8708, 2021-01-15)">
  <metadata
     id="metadata849">
    <rdf:RDF>
      <cc:Work
         rdf:about="">
        <dc:format>image/svg+xml</dc:format>
        <dc:type
           rdf:resource="http://purl.org/dc/dcmitype/StillImage" />
        <dc:title></dc:title>
      </cc:Work>
    </rdf:RDF>
  </metadata>
  <defs
     id="defs847" />
  <sodipodi:namedview
     pagecolor="#ffffff"
     bordercolor="#666666"
     borderopacity="1"
     objecttolerance="10"
     gridtolerance="10"
     guidetolerance="10"
     inkscape:pageopacity="0"
     inkscape:pageshadow="2"
     inkscape:window-width="1680"
     inkscape:window-height="997"
     id="namedview845"
     showgrid="false"
     inkscape:pagecheckerboard="true"
     inkscape:zoom="15.659406"
     inkscape:cx="24.799717"
     inkscape:cy="9.5302464"
     inkscape:window-x="0"
     inkscape:window-y="25"
     inkscape:window-maximized="0"
     inkscape:current-layer="svg843" />
  <circle
     cx="11.999996"
     cy="11.999996"
     r="11.430605"
     stroke="#ffffff"
     stroke-width="1.13879"
     id="circle833" />
  <path
     d="m 6.4056902,12.156579 h 0.8469751 v 3.330961 h 8.5799287 l 0.509039,0.939502 H 7.0656759 L 6.4056902,15.48754 Z"
     fill="#ffffff"
     id="path835"
     style="stroke-width:0.0284698" />
  <path
     d="M 8.8256189,15.48754 H 9.82206 v 3.330961 h 6.13452 l 0.385053,0.939502 H 9.3248645 L 8.8256189,18.818501 Z"
     fill="#ffffff"
     id="path837"
     style="stroke-width:0.0284698" />
  <path
     d="M 9.0276688,6.3138184 H 7.2520106 V 8.292409 L 7.7762524,7.7681667 H 8.6979037 L 7.970729,8.5037966 H 7.2520106 V 12.156579 H 6.4149142 V 6.3138184 L 7.1505441,5.5781885 h 1.133039 z M 12.234757,7.7681667 11.507583,8.5037966 H 9.731925 V 11.42095 h 1.352882 V 9.2309713 h 0.837096 v 4.3884127 l -0.727174,0.727174 H 8.7933627 L 9.5120816,13.619384 H 11.084807 V 11.51396 l -0.837095,0.642619 H 9.6304586 L 8.8948287,11.42095 V 8.5037966 L 9.6304586,7.7681667 Z m 4.027986,4.3884123 H 15.425647 V 8.5037966 H 14.064309 V 12.156579 H 13.227213 V 6.2208077 l 0.837096,-0.8286406 v 3.0101636 l 0.617253,-0.634164 h 0.845551 l 0.73563,0.7356299 z"
     fill="#ffffff"
     id="path839"
     style="stroke-width:0.0284698" />
  <path
     d="M 13.523127,6.3202809 H 8.0569358 V 5.5800676 h 4.6852952 z"
     fill="#ffffff"
     id="path841"
     style="stroke-width:0.0284698" />
</svg>
